<?xml version="1.0" encoding="UTF-8" standalone="no"?>
<!DOCTYPE svg PUBLIC "-//W3C//DTD SVG 1.1//EN" "http://www.w3.org/Graphics/SVG/1.1/DTD/svg11.dtd">
<svg width="100%" height="100%" viewBox="0 0 825 529" version="1.1" xmlns="http://www.w3.org/2000/svg" xmlns:xlink="http://www.w3.org/1999/xlink" xml:space="preserve" xmlns:serif="http://www.serif.com/" style="fill-rule:evenodd;clip-rule:evenodd;stroke-linecap:round;stroke-linejoin:round;stroke-miterlimit:1.5;">
    <g transform="matrix(1,0,0,1,-771.673,-669.391)">
        <path d="M945.597,727.544C849.495,763.582 815.056,761.114 778.918,860.492C734.057,983.861 924.248,1020.29 1016.18,1101.67C1092.43,1169.17 1365.55,1184.62 1405.16,1092.2C1442.12,1005.96 1500.8,947.186 1537.83,860.778C1571.26,782.768 1417.22,681.8 1357.11,671.164C1324.74,665.437 1195.19,680.5 1147.37,687.06C1141.08,687.923 974.067,721.517 958.838,724.513C957.285,724.818 955.116,725.143 945.597,727.544Z" style="fill:rgb(239,200,139);stroke:rgb(24,31,28);stroke-width:1px;"/>
        <g transform="matrix(0.374175,0.66362,-0.834913,0.470757,1976.17,-437.667)">
            <path d="M1303.5,1377.21C1269,1379.92 1226.39,1349.57 1201.02,1308.43C1176.99,1269.48 1224.19,1088.46 1231.1,1075.39C1266.11,1009.27 1363.14,1123.15 1433.61,1109.06C1472.58,1101.27 1622.18,1189.41 1591.62,1228.95C1574.61,1250.96 1556.23,1279.12 1532.13,1293.85C1495.3,1316.35 1473.6,1354.28 1433.32,1367.7C1393.44,1381 1344.26,1367.03 1303.5,1377.21Z" style="fill:rgb(207,92,54);stroke:rgb(24,31,28);stroke-width:1.16px;"/>
        </g>
    </g>
</svg>
